<svg version="1.0" xmlns="http://www.w3.org/2000/svg" width="700.000000pt" height="700.000000pt" viewBox="0 0 700.000000 700.000000" preserveAspectRatio="xMidYMid meet"><g transform="translate(0.000000,700.000000) scale(0.100000,-0.100000)" fill="#000000" stroke="none"><path d="M3522 6355 c-212 -38 -411 -165 -491 -314 -47 -90 -64 -176 -58 -306 8 -177 60 -313 191 -495 42 -58 92 -138 113 -179 35 -68 38 -81 38 -155 0 -68 -4 -90 -28 -137 -38 -78 -133 -179 -204 -216 -111 -60 -163 -68 -413 -67 -252 1 -402 14 -824 74 -154 22 -281 38 -284 36 -2 -3 -1 -896 3 -1985 l8 -1981 1871 2 1871 3 12 80 c7 44 24 152 38 241 64 408 89 773 62 922 -28 153 -91 250 -218 336 -60 41 -162 76 -218 76 -82 0 -200 -50 -356 -151 -194 -125 -362 -180 -555 -181 -224 -2 -385 71 -494 226 -100 140 -136 249 -143 431 -5 110 -2 143 16 219 55 229 217 402 422 451 91 21 249 19 341 -4 102 -26 213 -84 328 -170 183 -137 346 -199 495 -188 220 16 339 159 370 442 3 33 1 134 -5 225 -9 151 -23 268 -79 705 -11 83 -23 188 -27 234 l-7 84 -96 -7 c-94 -7 -164 -18 -461 -72 -171 -31 -380 -38 -470 -15 -126 32 -213 100 -251 199 -32 80 -32 241 0 326 26 74 93 182 161 261 152 176 214 320 213 490 -1 140 -36 248 -114 344 -69 86 -204 167 -338 202 -101 27 -305 34 -419 14z"/></g></svg>